<svg width="21" height="21" viewBox="0 0 21 21" fill="none" xmlns="http://www.w3.org/2000/svg">
<path d="M4.31549 14.2085L4.31315 14.3637L4.39907 14.4929C5.77779 16.5664 8.14099 17.9361 10.8154 17.9361C13.4899 17.9361 15.8531 16.5664 17.2318 14.4929L17.3177 14.3637L17.3154 14.2085C17.3052 13.531 16.9565 12.9696 16.4867 12.5301C16.0189 12.0926 15.3975 11.7419 14.7432 11.4685C13.4367 10.9226 11.8788 10.6361 10.8154 10.6361C9.74717 10.6361 8.18921 10.9225 6.88375 11.4686C6.22999 11.742 5.60942 12.0928 5.14244 12.5305C4.67334 12.9701 4.32569 13.5314 4.31549 14.2085ZM1.31543 10.2361C1.31543 4.99223 5.57157 0.736084 10.8154 0.736084C16.0593 0.736084 20.3154 4.99223 20.3154 10.2361C20.3154 15.4799 16.0593 19.7361 10.8154 19.7361C5.57157 19.7361 1.31543 15.4799 1.31543 10.2361ZM14.3154 6.23608C14.3154 4.29994 12.7516 2.73608 10.8154 2.73608C8.87929 2.73608 7.31543 4.29994 7.31543 6.23608C7.31543 8.17223 8.87929 9.73608 10.8154 9.73608C12.7516 9.73608 14.3154 8.17223 14.3154 6.23608Z" fill="black" stroke="black"/>
</svg>
